<svg xmlns="http://www.w3.org/2000/svg" xmlns:xlink="http://www.w3.org/1999/xlink" width="1080" zoomAndPan="magnify" viewBox="0 0 810 809.999993" height="1080" preserveAspectRatio="xMidYMid meet" version="1.2"><g id="4d2114fc49"><rect x="0" width="810" y="0" height="809.999993" style="fill:#ffffff;fill-opacity:1;stroke:none;"/><rect x="0" width="810" y="0" height="809.999993" style="fill:#00133b;fill-opacity:1;stroke:none;"/><path style="fill-rule:nonzero;fill:#4267b2;fill-opacity:1;stroke-width:1;stroke-linecap:butt;stroke-linejoin:miter;stroke:#4267b2;stroke-opacity:1;stroke-miterlimit:10;" d="M 462.69999 234.600573 C 462.69999 238.235729 462.609756 241.870885 462.431436 245.503893 C 462.253115 249.134752 461.986709 252.761315 461.630069 256.379283 C 461.273428 259.999401 460.828701 263.606627 460.295889 267.203111 C 459.760928 270.799596 459.14003 274.38319 458.431045 277.949596 C 457.722061 281.516002 456.92499 285.063072 456.041983 288.590807 C 455.156826 292.118541 454.187881 295.620494 453.132998 299.100963 C 452.075967 302.581432 450.935147 306.033971 449.710537 309.456432 C 448.485928 312.881041 447.17753 316.273424 445.785342 319.631431 C 444.395303 322.991588 442.921475 326.315221 441.366006 329.60233 C 439.810537 332.889439 438.177725 336.137877 436.463272 339.343345 C 434.748819 342.550963 432.957022 345.713463 431.087881 348.832994 C 429.218741 351.952525 427.272256 355.024791 425.252725 358.047642 C 423.233194 361.070494 421.138467 364.043931 418.972842 366.963658 C 416.807217 369.885533 414.570694 372.751548 412.263272 375.561705 C 409.95585 378.374009 407.581827 381.126158 405.139053 383.820298 C 402.69628 386.514439 400.191202 389.148423 397.619522 391.720103 C 395.047842 394.289634 392.413858 396.796861 389.719717 399.239634 C 387.025577 401.682408 384.273428 404.056431 381.463272 406.363853 C 378.650968 408.669126 375.784952 410.90565 372.865225 413.073423 C 369.94335 415.239048 366.972061 417.331626 363.947061 419.353306 C 360.92421 421.372837 357.851944 423.317173 354.734561 425.186314 C 351.61503 427.057603 348.450382 428.8494 345.244913 430.563853 C 342.037296 432.276157 338.791007 433.911118 335.501749 435.466587 C 332.21464 437.022056 328.891007 438.493735 325.532999 439.885923 C 322.172843 441.27811 318.78046 442.586509 315.355851 443.811118 C 311.93339 445.035728 308.480851 446.176548 305.000382 447.231431 C 301.522062 448.288462 298.01796 449.257407 294.490226 450.140415 C 290.962491 451.023423 287.415421 451.820493 283.849015 452.529478 C 280.282609 453.24061 276.701163 453.861509 273.102531 454.394321 C 269.506046 454.929282 265.89882 455.374009 262.278703 455.730649 C 258.660734 456.08729 255.034171 456.353696 251.403312 456.532017 C 247.770304 456.710337 244.137296 456.800571 240.499992 456.800571 C 236.862687 456.800571 233.229679 456.710337 229.596671 456.532017 C 225.965812 456.353696 222.33925 456.08729 218.721281 455.730649 C 215.101164 455.374009 211.493937 454.929282 207.897453 454.394321 C 204.29882 453.861509 200.717375 453.24061 197.150969 452.529478 C 193.584562 451.820493 190.037492 451.023423 186.509758 450.140415 C 182.982023 449.257407 179.477922 448.288462 175.999601 447.231431 C 172.519133 446.176548 169.066594 445.035728 165.644133 443.811118 C 162.219523 442.586509 158.827141 441.27811 155.466984 439.885923 C 152.108977 438.493735 148.785344 437.022056 145.498234 435.466587 C 142.208977 433.911118 138.962688 432.276157 135.75507 430.563853 C 132.549602 428.8494 129.384953 427.057603 126.265422 425.186314 C 123.148039 423.317173 120.075774 421.372837 117.052922 419.353306 C 114.027922 417.331626 111.056633 415.239048 108.134758 413.073423 C 105.215032 410.90565 102.349016 408.669126 99.53886 406.363853 C 96.726555 404.056431 93.974407 401.682408 91.280266 399.239634 C 88.586125 396.796861 85.952141 394.289634 83.380461 391.720103 C 80.808782 389.148423 78.303704 386.514439 75.86093 383.820298 C 73.418157 381.126158 71.044133 378.374009 68.736711 375.561705 C 66.42929 372.751548 64.192766 369.885533 62.027141 366.963658 C 59.861516 364.043931 57.76679 361.070494 55.747258 358.047642 C 53.727727 355.024791 51.781243 351.952525 49.912102 348.832994 C 48.042962 345.713463 46.251165 342.550963 44.536712 339.343345 C 42.822258 336.137877 41.187298 332.889439 39.633977 329.60233 C 38.078509 326.315221 36.60468 322.991588 35.214641 319.631431 C 33.822454 316.273424 32.514055 312.881041 31.289446 309.456432 C 30.064837 306.033971 28.924016 302.581432 27.866985 299.100963 C 26.812102 295.620494 25.843157 292.118541 24.958001 288.590807 C 24.074993 285.063072 23.277923 281.516002 22.568938 277.949596 C 21.859954 274.38319 21.239055 270.799596 20.704095 267.203111 C 20.171282 263.606627 19.726555 259.999401 19.369915 256.379283 C 19.013274 252.761315 18.746868 249.134752 18.568548 245.503893 C 18.390227 241.870885 18.299993 238.235729 18.299993 234.600573 C 18.299993 230.963268 18.390227 227.33026 18.568548 223.697252 C 18.746868 220.064245 19.013274 216.439831 19.369915 212.819713 C 19.726555 209.201745 20.171282 205.594518 20.704095 201.995885 C 21.239055 198.399401 21.859954 194.817956 22.568938 191.251549 C 23.277923 187.685143 24.074993 184.138073 24.958001 180.610339 C 25.843157 177.082604 26.812102 173.578503 27.866985 170.098034 C 28.924016 166.619714 30.064837 163.167175 31.289446 159.742565 C 32.514055 156.320104 33.822454 152.927721 35.214641 149.567565 C 36.60468 146.207409 38.078509 142.883776 39.633977 139.596667 C 41.187298 136.309558 42.822258 133.063268 44.536712 129.855651 C 46.251165 126.648034 48.042962 123.485534 49.912102 120.366003 C 51.781243 117.246472 53.727727 114.176355 55.747258 111.151355 C 57.76679 108.128503 59.861516 105.157214 62.027141 102.235339 C 64.192766 99.315612 66.42929 96.449597 68.736711 93.637292 C 71.044133 90.827136 73.418157 88.074987 75.86093 85.378698 C 78.303704 82.684558 80.808782 80.052722 83.380461 77.481042 C 85.952141 74.909363 88.586125 72.402136 91.280266 69.961511 C 93.974407 67.518738 96.726555 65.144714 99.53886 62.837292 C 102.349016 60.52987 105.215032 58.293347 108.134758 56.127722 C 111.056633 53.962097 114.027922 51.867371 117.052922 49.847839 C 120.075774 47.82616 123.148039 45.881824 126.265422 44.012683 C 129.384953 42.143542 132.549602 40.351746 135.75507 38.637292 C 138.962688 36.922839 142.208977 35.287878 145.498234 33.734558 C 148.785344 32.179089 152.108977 30.705261 155.466984 29.313074 C 158.827141 27.923035 162.219523 26.614636 165.644133 25.387878 C 169.066594 24.163269 172.519133 23.022449 175.999601 21.967566 C 179.477922 20.912683 182.982023 19.941589 186.509758 19.058582 C 190.037492 18.175574 193.584562 17.378504 197.150969 16.669519 C 200.717375 15.960535 204.29882 15.339636 207.897453 14.804675 C 211.493937 14.271863 215.101164 13.827136 218.721281 13.470496 C 222.33925 13.113855 225.965812 12.8453 229.596671 12.66698 C 233.229679 12.48866 236.862687 12.400574 240.499992 12.400574 C 244.137296 12.400574 247.770304 12.48866 251.403312 12.66698 C 255.034171 12.8453 258.660734 13.113855 262.278703 13.470496 C 265.89882 13.827136 269.506046 14.271863 273.102531 14.804675 C 276.701163 15.339636 280.282609 15.960535 283.849015 16.669519 C 287.415421 17.378504 290.962491 18.175574 294.490226 19.058582 C 298.01796 19.941589 301.522062 20.912683 305.000382 21.967566 C 308.480851 23.022449 311.93339 24.163269 315.355851 25.387878 C 318.78046 26.614636 322.172843 27.923035 325.532999 29.313074 C 328.891007 30.705261 332.21464 32.179089 335.501749 33.734558 C 338.791007 35.287878 342.037296 36.922839 345.244913 38.637292 C 348.450382 40.351746 351.61503 42.143542 354.734561 44.012683 C 357.851944 45.881824 360.92421 47.82616 363.947061 49.847839 C 366.972061 51.867371 369.94335 53.962097 372.865225 56.127722 C 375.784952 58.293347 378.650968 60.52987 381.463272 62.837292 C 384.273428 65.144714 387.025577 67.518738 389.719717 69.961511 C 392.413858 72.402136 395.047842 74.909363 397.619522 77.481042 C 400.191202 80.052722 402.69628 82.684558 405.139053 85.378698 C 407.581827 88.074987 409.95585 90.827136 412.263272 93.637292 C 414.570694 96.449597 416.807217 99.315612 418.972842 102.235339 C 421.138467 105.157214 423.233194 108.128503 425.252725 111.151355 C 427.272256 114.176355 429.218741 117.246472 431.087881 120.366003 C 432.957022 123.485534 434.748819 126.648034 436.463272 129.855651 C 438.177725 133.063268 439.810537 136.309558 441.366006 139.596667 C 442.921475 142.883776 444.395303 146.207409 445.785342 149.567565 C 447.17753 152.927721 448.485928 156.320104 449.710537 159.742565 C 450.935147 163.167175 452.075967 166.619714 453.132998 170.098034 C 454.187881 173.578503 455.156826 177.082604 456.041983 180.610339 C 456.92499 184.138073 457.722061 187.685143 458.431045 191.251549 C 459.14003 194.817956 459.760928 198.399401 460.295889 201.995885 C 460.828701 205.594518 461.273428 209.201745 461.630069 212.819713 C 461.986709 216.439831 462.253115 220.064245 462.431436 223.697252 C 462.609756 227.33026 462.69999 230.963268 462.69999 234.600573 Z M 462.69999 234.600573 " transform="matrix(1.818182,0,0,1.818182,-32.272715,-21.636342)"/><path style="fill-rule:nonzero;fill:#ffffff;fill-opacity:1;stroke-width:1;stroke-linecap:butt;stroke-linejoin:miter;stroke:#ffffff;stroke-opacity:1;stroke-miterlimit:10;" d="M 292.700577 78.000964 C 274.999601 81.199988 268.900187 84.199206 258.699406 89.999987 C 247.800382 96.200378 240.19921 102.699401 234.999992 107.999597 C 217.999406 125.599597 214.200968 142.000768 210.999797 154.700182 C 206.200187 173.400182 206.700773 191.000182 206.700773 191.000182 L 206.700773 204.700768 L 171.000187 204.700768 L 171.000187 266.799205 L 206.700773 266.799205 L 206.700773 454.29979 C 217.700773 455.999204 228.999406 456.899399 240.499992 456.899399 C 257.500578 456.899399 274.099406 455.000181 289.999991 451.399399 L 289.999991 266.799205 L 344.299601 266.799205 L 344.299601 204.700768 L 289.999991 204.700768 L 289.999991 191.500768 C 289.999991 191.500768 289.999991 189.100963 289.999991 188.800182 C 289.999991 188.499401 289.999991 188.099792 289.999991 187.79901 C 289.999991 185.100573 290.100968 181.100182 290.700382 177.600378 C 292.199991 168.499596 295.300187 161.399011 300.499405 155.099792 C 306.499991 147.900378 313.499601 144.800182 321.300577 143.599206 C 340.599991 140.599987 356.700382 147.300964 356.700382 147.300964 L 359.6996 81.999206 C 359.6996 81.999206 347.5996 78.099792 327.599796 76.699011 C 313.499601 75.699988 300.999991 76.499206 292.700577 78.000964 Z M 292.700577 78.000964 " transform="matrix(1.818182,0,0,1.818182,-32.272715,-21.636342)"/></g></svg>