<svg xmlns="http://www.w3.org/2000/svg" xmlns:xlink="http://www.w3.org/1999/xlink" width="1080" zoomAndPan="magnify" viewBox="0 0 810 809.999993" height="1080" preserveAspectRatio="xMidYMid meet" version="1.2"><defs><clipPath id="9a3a917263"><path d="M 218 425 L 593 425 L 593 688.5 L 218 688.5 Z M 218 425 "/></clipPath><clipPath id="1513e5a0de"><path d="M 515 121.5 L 731 121.5 L 731 338 L 515 338 Z M 515 121.5 "/></clipPath><clipPath id="a1c6ca7c40"><path d="M 509.269531 318.816406 L 809.839844 318.816406 L 809.839844 583 L 509.269531 583 Z M 509.269531 318.816406 "/></clipPath><clipPath id="4fe616a220"><path d="M 78 121.5 L 295 121.5 L 295 338 L 78 338 Z M 78 121.5 "/></clipPath></defs><g id="f0a242f5e9"><rect x="0" width="810" y="0" height="809.999993" style="fill:#aac5d1;fill-opacity:1;stroke:none;"/><path style=" stroke:none;fill-rule:nonzero;fill:#043759;fill-opacity:1;" d="M 405.214844 227.902344 C 345.6875 227.902344 297.261719 276.332031 297.261719 335.851562 C 297.261719 395.378906 345.6875 443.804688 405.214844 443.804688 C 464.734375 443.804688 513.164062 395.378906 513.164062 335.851562 C 513.164062 276.332031 464.734375 227.902344 405.214844 227.902344 "/><g clip-rule="nonzero" clip-path="url(#9a3a917263)"><path style=" stroke:none;fill-rule:nonzero;fill:#043759;fill-opacity:1;" d="M 496.503906 425.230469 C 473.285156 448.945312 440.941406 463.703125 405.214844 463.703125 C 369.480469 463.703125 337.140625 448.945312 313.917969 425.230469 C 256.957031 457.273438 218.375 518.28125 218.375 588.160156 L 218.375 662.835938 C 232.3125 669.46875 282.972656 688.5 405.214844 688.5 C 527.296875 688.5 577.980469 669.519531 592.054688 662.820312 L 592.054688 588.160156 C 592.054688 518.28125 553.464844 457.273438 496.503906 425.230469 "/></g><g clip-rule="nonzero" clip-path="url(#1513e5a0de)"><path style=" stroke:none;fill-rule:nonzero;fill:#043759;fill-opacity:1;" d="M 623.003906 121.5 C 563.476562 121.5 515.050781 169.925781 515.050781 229.445312 C 515.050781 288.972656 563.476562 337.398438 623.003906 337.398438 C 682.523438 337.398438 730.953125 288.972656 730.953125 229.445312 C 730.953125 169.925781 682.523438 121.5 623.003906 121.5 "/></g><g clip-rule="nonzero" clip-path="url(#a1c6ca7c40)"><path style=" stroke:none;fill-rule:nonzero;fill:#043759;fill-opacity:1;" d="M 714.296875 318.824219 C 691.074219 342.542969 658.738281 357.296875 623.003906 357.296875 C 587.371094 357.296875 555.121094 342.621094 531.914062 319.027344 C 532.640625 324.539062 533.058594 330.148438 533.058594 335.851562 C 533.058594 363.371094 524.285156 388.855469 509.429688 409.730469 C 569.042969 444.679688 609.695312 508.601562 611.839844 582.042969 C 615.496094 582.078125 619.210938 582.09375 623.003906 582.09375 C 745.085938 582.09375 795.773438 563.113281 809.84375 556.421875 L 809.84375 481.753906 C 809.84375 411.875 771.257812 350.871094 714.296875 318.824219 "/></g><g clip-rule="nonzero" clip-path="url(#4fe616a220)"><path style=" stroke:none;fill-rule:nonzero;fill:#043759;fill-opacity:1;" d="M 186.945312 121.5 C 127.417969 121.5 78.992188 169.925781 78.992188 229.445312 C 78.992188 288.972656 127.417969 337.398438 186.945312 337.398438 C 246.472656 337.398438 294.898438 288.972656 294.898438 229.445312 C 294.898438 169.925781 246.472656 121.5 186.945312 121.5 "/></g><path style=" stroke:none;fill-rule:nonzero;fill:#043759;fill-opacity:1;" d="M 300.992188 409.730469 C 286.140625 388.855469 277.363281 363.371094 277.363281 335.851562 C 277.363281 330.132812 277.78125 324.511719 278.515625 318.988281 C 278.421875 318.9375 278.328125 318.878906 278.238281 318.824219 C 255.015625 342.542969 222.679688 357.296875 186.945312 357.296875 C 151.210938 357.296875 118.875 342.542969 95.652344 318.824219 C 38.691406 350.871094 0.105469 411.875 0.105469 481.753906 L 0.105469 556.429688 C 14.046875 563.066406 64.707031 582.09375 186.945312 582.09375 C 190.917969 582.09375 194.808594 582.074219 198.636719 582.03125 C 200.789062 508.597656 241.386719 444.675781 300.992188 409.730469 "/></g></svg>